# Blender v2.78 (sub 0) OBJ File: ''
# www.blender.org
mtllib windmill-blades.mtl
o windmill-blades.windmill-blades_Plane-tex
v -0.050000 1.350000 0.250000
v -0.050000 1.350000 0.350000
v -0.050000 1.050000 0.350000
v -0.050000 1.050000 0.250000
v -0.050000 0.950000 0.250000
v -0.050000 0.950000 0.350000
v -0.050000 0.350000 0.350000
v -0.050000 0.350000 0.250000
v -0.050000 0.150000 0.250000
v -0.050000 0.150000 0.350000
v -0.050000 0.050000 0.350000
v -0.050000 0.050000 0.250000
v 0.150000 0.350000 0.250000
v 0.150000 0.350000 0.350000
v 0.150000 0.250000 0.350000
v 0.150000 0.250000 0.250000
v 0.150000 0.150000 -0.250000
v 0.150000 0.150000 0.050000
v 0.150000 -0.150000 0.050000
v 0.150000 -0.150000 -0.250000
v 0.150000 -1.450000 0.050000
v 0.150000 -1.450000 0.350000
v 0.150000 -1.550000 0.350000
v 0.150000 -1.550000 0.050000
v -0.150000 0.050000 0.250000
v -0.150000 0.050000 0.350000
v -0.150000 -0.150000 0.350000
v -0.150000 -0.150000 0.250000
v 0.250000 1.450000 0.050000
v 0.250000 1.450000 0.350000
v 0.250000 1.350000 0.350000
v 0.250000 1.350000 0.050000
v 0.250000 1.050000 0.250000
v 0.250000 1.050000 0.350000
v 0.250000 0.950000 0.350000
v 0.250000 0.950000 0.250000
v 0.250000 1.350000 0.250000
v 0.250000 0.250000 0.250000
v 0.250000 0.250000 0.050000
v 0.250000 -0.150000 0.250000
v 0.250000 -0.150000 0.350000
v 0.250000 -0.250000 0.350000
v 0.250000 -0.250000 0.250000
v 0.250000 -0.250000 0.050000
v 0.250000 -1.450000 0.350000
v 0.250000 -1.450000 0.050000
v 0.350000 0.050000 0.250000
v 0.350000 0.050000 0.350000
v 0.350000 -0.150000 0.350000
v 0.350000 -0.150000 0.250000
v -1.050000 0.250000 0.250000
v -1.050000 0.250000 0.350000
v -1.050000 -0.050000 0.350000
v -1.050000 -0.050000 0.250000
v 1.150000 0.050000 0.250000
v 1.150000 0.050000 0.350000
v 1.150000 -0.250000 0.350000
v 1.150000 -0.250000 0.250000
v -1.450000 0.250000 0.250000
v -1.450000 0.250000 0.350000
v -1.450000 -0.050000 0.350000
v -1.450000 -0.050000 0.250000
v 1.450000 0.250000 0.050000
v 1.450000 0.250000 0.350000
v 1.450000 0.150000 0.350000
v 1.450000 0.150000 0.050000
v 1.550000 0.150000 0.050000
v 1.550000 0.150000 0.350000
v 1.550000 -0.250000 0.350000
v 1.550000 -0.250000 0.050000
v -0.150000 1.450000 0.050000
v -0.150000 1.450000 0.350000
v -0.150000 1.350000 0.350000
v -0.150000 1.350000 0.050000
v -0.150000 0.150000 -0.250000
v -0.150000 0.150000 0.050000
v -0.150000 -0.150000 0.050000
v -0.150000 -0.150000 -0.250000
v -0.150000 -0.250000 0.250000
v -0.150000 -0.250000 0.350000
v -0.150000 -0.350000 0.350000
v -0.150000 -0.350000 0.250000
v -0.250000 1.350000 0.050000
v -0.250000 1.350000 0.350000
v -0.250000 0.250000 0.350000
v -0.250000 0.250000 0.050000
v -0.250000 0.250000 0.250000
v -0.250000 0.150000 0.350000
v -0.250000 0.150000 0.250000
v -0.250000 -1.050000 0.250000
v -0.250000 -1.050000 0.350000
v -0.250000 -1.150000 0.350000
v -0.250000 -1.150000 0.250000
v -0.250000 -0.250000 0.050000
v -0.250000 -0.250000 0.250000
v -0.250000 -1.450000 0.250000
v -0.250000 -1.450000 0.050000
v -0.250000 -1.450000 0.350000
v -0.250000 -1.550000 0.350000
v -0.250000 -1.550000 0.050000
v 0.050000 -0.050000 0.250000
v 0.050000 -0.050000 0.350000
v 0.050000 -0.150000 0.350000
v 0.050000 -0.150000 0.250000
v 0.050000 -0.350000 0.250000
v 0.050000 -0.350000 0.350000
v 0.050000 -1.050000 0.350000
v 0.050000 -1.050000 0.250000
v 0.050000 -1.150000 0.250000
v 0.050000 -1.150000 0.350000
v 0.050000 -1.450000 0.350000
v 0.050000 -1.450000 0.250000
v 0.150000 0.150000 0.250000
v 0.150000 0.150000 0.350000
v 0.150000 -0.050000 0.350000
v 0.150000 -0.050000 0.250000
v -0.350000 0.150000 0.250000
v -0.350000 0.150000 0.350000
v -0.350000 -0.050000 0.350000
v -0.350000 -0.050000 0.250000
v -1.150000 0.250000 0.250000
v -1.150000 0.250000 0.350000
v -1.150000 -0.050000 0.350000
v -1.150000 -0.050000 0.250000
v 1.050000 0.050000 0.250000
v 1.050000 0.050000 0.350000
v 1.050000 -0.250000 0.350000
v 1.050000 -0.250000 0.250000
v -1.450000 -0.150000 0.050000
v -1.450000 -0.150000 0.350000
v -1.450000 -0.250000 0.350000
v -1.450000 -0.250000 0.050000
v -1.550000 0.250000 0.050000
v -1.550000 0.250000 0.350000
v -1.550000 -0.150000 0.350000
v -1.550000 -0.150000 0.050000
v 1.450000 0.050000 0.250000
v 1.450000 0.050000 0.350000
v 1.450000 -0.250000 0.350000
v 1.450000 -0.250000 0.250000
v -0.250000 -0.250000 0.350000
v 1.450000 -0.250000 0.050000
v -1.450000 0.250000 0.050000
v 0.250000 0.250000 0.350000
v -0.150000 0.250000 0.050000
v 0.150000 -0.250000 0.050000
v -0.350000 0.250000 0.250000
v -0.150000 -1.050000 0.250000
v -0.050000 -0.150000 0.250000
v 0.050000 0.150000 0.250000
v 0.150000 0.950000 0.250000
v 0.350000 -0.250000 0.250000
v -0.350000 -0.250000 0.350000
v -0.150000 0.150000 0.350000
v 0.150000 -0.150000 0.350000
v 0.350000 0.250000 0.350000
vt 0.1112 0.6664
vt 0.2221 0.6664
vt 0.1112 0.3338
vt 0.1112 0.6664
vt 0.2221 0.6664
vt 0.1112 0.3338
vt 0.1112 0.6664
vt 0.2221 0.6664
vt 0.1112 0.3338
vt 0.1112 0.6664
vt 0.2221 0.6664
vt 0.1112 0.3338
vt 0.1112 0.6664
vt 0.2221 0.6664
vt 0.1112 0.3338
vt 0.1112 0.6664
vt 0.2221 0.6664
vt 0.1112 0.3338
vt 0.1112 0.6664
vt 0.2221 0.6664
vt 0.1112 0.3338
vt 0.1112 0.6664
vt 0.2221 0.6664
vt 0.1112 0.3338
vt 0.1112 0.6664
vt 0.2221 0.6664
vt 0.1112 0.3338
vt 0.1112 0.6664
vt 0.2221 0.6664
vt 0.1112 0.3338
vt 0.1112 0.6664
vt 0.2221 0.6664
vt 0.1112 0.3338
vt 0.1112 0.6664
vt 0.2221 0.6664
vt 0.1112 0.3338
vt 0.1112 0.6664
vt 0.2221 0.6664
vt 0.1112 0.3338
vt 0.1112 0.6664
vt 0.2221 0.6664
vt 0.1112 0.3338
vt 0.1112 0.6664
vt 0.2221 0.6664
vt 0.1112 0.3338
vt 0.1112 0.6664
vt 0.2221 0.6664
vt 0.1112 0.3338
vt 0.1112 0.6664
vt 0.2221 0.6664
vt 0.1112 0.3338
vt 0.1112 0.6664
vt 0.2221 0.6664
vt 0.1112 0.3338
vt 0.4445 0.6664
vt 0.5554 0.6664
vt 0.4445 0.3338
vt 0.4445 0.6664
vt 0.5554 0.6664
vt 0.4445 0.3338
vt 0.1112 0.6664
vt 0.2221 0.6664
vt 0.1112 0.3338
vt 0.1112 0.6664
vt 0.2221 0.6664
vt 0.1112 0.3338
vt 0.1112 0.6664
vt 0.2221 0.6664
vt 0.1112 0.3338
vt 0.1112 0.6664
vt 0.2221 0.6664
vt 0.1112 0.3338
vt 0.1112 0.6664
vt 0.2221 0.6664
vt 0.1112 0.3338
vt 0.1112 0.6664
vt 0.2221 0.6664
vt 0.1112 0.3338
vt 0.1112 0.6664
vt 0.2221 0.6664
vt 0.1112 0.3338
vt 0.1112 0.6664
vt 0.2221 0.6664
vt 0.1112 0.3338
vt 0.1112 0.6664
vt 0.2221 0.6664
vt 0.1112 0.3338
vt 0.1112 0.6664
vt 0.2221 0.6664
vt 0.1112 0.3338
vt 0.1112 0.6664
vt 0.2221 0.6664
vt 0.1112 0.3338
vt 0.1112 0.6664
vt 0.2221 0.6664
vt 0.1112 0.3338
vt 0.1112 0.6664
vt 0.2221 0.6664
vt 0.1112 0.3338
vt 0.1112 0.6664
vt 0.2221 0.6664
vt 0.1112 0.3338
vt 0.1112 0.6664
vt 0.2221 0.6664
vt 0.1112 0.3338
vt 0.1112 0.6664
vt 0.2221 0.6664
vt 0.1112 0.3338
vt 0.2221 0.6664
vt 0.1112 0.6664
vt 0.1112 0.3338
vt 0.2221 0.6664
vt 0.1112 0.6664
vt 0.1112 0.3338
vt 0.2221 0.6664
vt 0.1112 0.6664
vt 0.1112 0.3338
vt 0.2221 0.6664
vt 0.1112 0.6664
vt 0.1112 0.3338
vt 0.2221 0.6664
vt 0.1112 0.6664
vt 0.1112 0.3338
vt 0.2221 0.6664
vt 0.1112 0.6664
vt 0.1112 0.3338
vt 0.2221 0.6664
vt 0.1112 0.6664
vt 0.1112 0.3338
vt 0.2221 0.6664
vt 0.1112 0.6664
vt 0.1112 0.3338
vt 0.2221 0.6664
vt 0.1112 0.6664
vt 0.1112 0.3338
vt 0.2221 0.6664
vt 0.1112 0.6664
vt 0.1112 0.3338
vt 0.2221 0.6664
vt 0.1112 0.6664
vt 0.1112 0.3338
vt 0.2221 0.6664
vt 0.1112 0.6664
vt 0.1112 0.3338
vt 0.5554 0.6664
vt 0.4445 0.6664
vt 0.4445 0.3338
vt 0.5554 0.6664
vt 0.4445 0.6664
vt 0.4445 0.3338
vt 0.2221 0.6664
vt 0.1112 0.6664
vt 0.1112 0.3338
vt 0.2221 0.6664
vt 0.1112 0.6664
vt 0.1112 0.3338
vt 0.2221 0.6664
vt 0.1112 0.6664
vt 0.1112 0.3338
vt 0.2221 0.6664
vt 0.1112 0.6664
vt 0.1112 0.3338
vt 0.2221 0.6664
vt 0.1112 0.6664
vt 0.1112 0.3338
vt 0.2221 0.6664
vt 0.1112 0.6664
vt 0.1112 0.3338
vt 0.2221 0.6664
vt 0.1112 0.6664
vt 0.1112 0.3338
vt 0.2221 0.6664
vt 0.1112 0.6664
vt 0.1112 0.3338
vt 0.2221 0.6664
vt 0.1112 0.6664
vt 0.1112 0.3338
vt 0.2221 0.6664
vt 0.1112 0.6664
vt 0.1112 0.3338
vt 0.2221 0.6664
vt 0.1112 0.6664
vt 0.1112 0.3338
vt 0.2221 0.6664
vt 0.1112 0.6664
vt 0.1112 0.3338
vt 0.2221 0.6664
vt 0.1112 0.6664
vt 0.1112 0.3338
vt 0.2221 0.6664
vt 0.1112 0.6664
vt 0.1112 0.3338
vt 0.2221 0.6664
vt 0.1112 0.6664
vt 0.1112 0.3338
vt 0.2221 0.6664
vt 0.1112 0.6664
vt 0.1112 0.3338
vt 0.2221 0.6664
vt 0.1112 0.6664
vt 0.1112 0.3338
vt 0.2221 0.6664
vt 0.1112 0.6664
vt 0.1112 0.3338
vt 0.2221 0.6664
vt 0.1112 0.6664
vt 0.1112 0.3338
vt 0.2221 0.6664
vt 0.1112 0.6664
vt 0.1112 0.3338
vt 0.2221 0.6664
vt 0.1112 0.6664
vt 0.1112 0.3338
vt 0.2221 0.6664
vt 0.1112 0.6664
vt 0.1112 0.3338
vt 0.1112 0.3338
vt 0.2221 0.6664
vt 0.1112 0.6664
vt 0.1112 0.3338
vt 0.2221 0.6664
vt 0.1112 0.6664
vt 0.2221 0.6664
vt 0.1112 0.6664
vt 0.1112 0.3338
vt 0.2221 0.6664
vt 0.1112 0.6664
vt 0.1112 0.3338
vt 0.2221 0.6664
vt 0.1112 0.6664
vt 0.1112 0.3338
vt 0.1112 0.3338
vt 0.2221 0.6664
vt 0.1112 0.6664
vt 0.2221 0.6664
vt 0.1112 0.6664
vt 0.1112 0.3338
vt 0.2221 0.6664
vt 0.1112 0.6664
vt 0.1112 0.3338
vt 0.2221 0.6664
vt 0.1112 0.6664
vt 0.1112 0.3338
vt 0.2221 0.6664
vt 0.1112 0.6664
vt 0.1112 0.3338
vt 0.2221 0.6664
vt 0.1112 0.6664
vt 0.1112 0.3338
vt 0.5554 0.6664
vt 0.4445 0.6664
vt 0.4445 0.3338
vt 0.5554 0.6664
vt 0.4445 0.6664
vt 0.4445 0.3338
vt 0.2221 0.6664
vt 0.1112 0.6664
vt 0.1112 0.3338
vt 0.2221 0.6664
vt 0.1112 0.6664
vt 0.1112 0.3338
vt 0.2221 0.6664
vt 0.1112 0.6664
vt 0.1112 0.3338
vt 0.2221 0.6664
vt 0.1112 0.6664
vt 0.1112 0.3338
vt 0.2221 0.6664
vt 0.1112 0.6664
vt 0.1112 0.3338
vt 0.2221 0.6664
vt 0.2221 0.6664
vt 0.1112 0.6664
vt 0.1112 0.3338
vt 0.1112 0.3338
vt 0.1112 0.6664
vt 0.2221 0.6664
vt 0.1112 0.6664
vt 0.2221 0.6664
vt 0.1112 0.3338
vt 0.1112 0.6664
vt 0.2221 0.6664
vt 0.1112 0.3338
vt 0.1112 0.3338
vt 0.1112 0.6664
vt 0.2221 0.6664
vt 0.1112 0.3338
vt 0.1112 0.6664
vt 0.2221 0.6664
vt 0.4445 0.6664
vt 0.5554 0.6664
vt 0.4445 0.3338
vt 0.4445 0.6664
vt 0.5554 0.6664
vt 0.4445 0.3338
vt 0.1112 0.6664
vt 0.2221 0.6664
vt 0.1112 0.3338
vt 0.1112 0.6664
vt 0.2221 0.6664
vt 0.1112 0.3338
vt 0.1112 0.6664
vt 0.2221 0.6664
vt 0.1112 0.3338
vt 0.1112 0.6664
vt 0.2221 0.6664
vt 0.1112 0.3338
vt 0.1112 0.6664
vt 0.2221 0.6664
vt 0.1112 0.3338
vt 0.1112 0.6664
vt 0.2221 0.6664
vt 0.1112 0.3338
vt 0.1112 0.6664
vt 0.2221 0.6664
vt 0.1112 0.3338
vt 0.1112 0.6664
vt 0.2221 0.6664
vt 0.1112 0.3338
vt 0.1112 0.6664
vt 0.2221 0.6664
vt 0.1112 0.3338
vt 0.1112 0.6664
vt 0.2221 0.6664
vt 0.1112 0.3338
vt 0.1112 0.6664
vt 0.2221 0.6664
vt 0.1112 0.3338
vt 0.1112 0.3338
vt 0.1112 0.6664
vt 0.2221 0.6664
vt 0.1112 0.6664
vt 0.1112 0.3338
vt 0.1112 0.6664
vt 0.2221 0.6664
vt 0.1112 0.3338
vt 0.1112 0.6664
vt 0.2221 0.6664
vt 0.1112 0.3338
vt 0.3249 0.3339
vt 0.3249 0.6664
vt 0.4443 0.6664
vt 0.4444 0.6661
vt 0.4444 0.3336
vt 0.3249 0.3336
vt 0.2223 0.3338
vt 0.2223 0.6664
vt 0.3702 0.6664
vt 0.3703 0.6662
vt 0.3703 0.3336
vt 0.2224 0.3336
vt 0.3242 0.6664
vt 0.4444 0.6664
vt 0.4444 0.3339
vt 0.4443 0.3336
vt 0.3241 0.3336
vt 0.3241 0.6661
vt 0.3233 0.6664
vt 0.3233 0.3338
vt 0.3234 0.3336
vt 0.4444 0.3336
vt 0.4444 0.6662
vt 0.2221 0.6664
vt 0.3703 0.3338
vt 0.3703 0.6664
vt 0.2224 0.6664
vt 0.2223 0.6662
vt 0.2223 0.3336
vt 0.3702 0.3336
vt 0.4444 0.6664
vt 0.3249 0.6664
vt 0.3249 0.6661
vt 0.3249 0.3336
vt 0.2221 0.6664
vt 0.4445 0.6664
vt 0.4445 0.3338
vt 0.5554 0.6664
vt 0.4445 0.6664
vt 0.4445 0.3338
vt 0.5554 0.6664
vt 0.4445 0.6664
vt 0.4445 0.3338
vt 0.5554 0.6664
vt 0.4445 0.6664
vt 0.4445 0.3338
vt 0.5554 0.6664
vt 0.4445 0.6664
vt 0.5554 0.6664
vt 0.4445 0.3338
vt 0.4445 0.6664
vt 0.4445 0.3338
vt 0.5554 0.6664
vt 0.4445 0.6664
vt 0.4445 0.3338
vt 0.5554 0.6664
vt 0.4445 0.6664
vt 0.4445 0.3338
vt 0.5554 0.6664
vt 0.4445 0.6664
vt 0.4445 0.3338
vt 0.5554 0.6664
vt 0.4445 0.3338
vt 0.5554 0.6664
vt 0.4445 0.6664
vt 0.8887 0.6664
vt 0.7779 0.6664
vt 0.7779 0.3338
vt 0.8887 0.6664
vt 0.7779 0.6664
vt 0.7779 0.3338
vt 0.8887 0.6664
vt 0.7779 0.6664
vt 0.7779 0.3338
vt 0.8887 0.6664
vt 0.7779 0.6664
vt 0.7779 0.3338
vt 0.8887 0.6664
vt 0.7779 0.6664
vt 0.7779 0.3338
vt 0.8887 0.6664
vt 0.7779 0.6664
vt 0.7779 0.3338
vt 0.5554 0.6664
vt 0.4445 0.6664
vt 0.4445 0.3338
vt 0.5554 0.6664
vt 0.4445 0.6664
vt 0.4445 0.3338
vt 0.5554 0.6664
vt 0.4445 0.6664
vt 0.4445 0.3338
vt 0.5554 0.6664
vt 0.4445 0.6664
vt 0.4445 0.3338
vt 0.5554 0.6664
vt 0.4445 0.6664
vt 0.4445 0.3338
vt 0.5554 0.6664
vt 0.4445 0.6664
vt 0.4445 0.3338
vt 0.5554 0.6664
vt 0.4445 0.6664
vt 0.4445 0.3338
vt 0.5554 0.6664
vt 0.4445 0.6664
vt 0.4445 0.3338
vt 0.5554 0.6664
vt 0.4445 0.6664
vt 0.4445 0.3338
vt 0.5554 0.6664
vt 0.4445 0.6664
vt 0.4445 0.3338
vt 0.5554 0.6664
vt 0.4445 0.6664
vt 0.4445 0.3338
vt 0.5554 0.6664
vt 0.4445 0.6664
vt 0.4445 0.3338
vt 0.2221 0.6664
vt 0.1112 0.6664
vt 0.1112 0.3338
vt 0.1112 0.6664
vt 0.1112 0.3338
vt 0.1112 0.3338
vt 0.1112 0.6664
vt 0.2221 0.6664
vt 0.1112 0.6664
vt 0.1112 0.3338
vt 0.2221 0.6664
vt 0.1112 0.6664
vt 0.1112 0.3338
vt 0.1112 0.3338
vt 0.2221 0.6664
vt 0.1112 0.6664
vt 0.2221 0.6664
vt 0.1112 0.6664
vt 0.2221 0.6664
vt 0.1112 0.3338
vt 0.2221 0.6664
vt 0.1112 0.3338
vt 0.2221 0.6664
vt 0.1112 0.6664
vt 0.1112 0.6664
vt 0.1112 0.3338
vt 0.2221 0.6664
vt 0.1112 0.6664
vt 0.1112 0.3338
vt 0.1112 0.3338
vt 0.2221 0.6664
vt 0.1112 0.6664
vt 0.2221 0.6664
vt 0.1112 0.6664
vt 0.1112 0.3338
vt 0.2221 0.6664
vn 1.0000 -0.0000 -0.0000
vn -1.0000 0.0000 0.0000
vn 0.0000 -1.0000 0.0000
vn 0.0000 1.0000 0.0000
vn -0.0000 -0.0000 -1.0000
vn 0.0000 0.0000 1.0000
usemtl lambert0
s off
f 1/1/1 2/2/1 3/3/1
f 3/4/1 4/5/1 1/6/1
f 5/7/1 6/8/1 7/9/1
f 7/10/1 8/11/1 5/12/1
f 9/13/1 10/14/1 11/15/1
f 11/16/1 12/17/1 9/18/1
f 13/19/1 14/20/1 15/21/1
f 15/22/1 16/23/1 13/24/1
f 17/25/1 18/26/1 19/27/1
f 19/28/1 20/29/1 17/30/1
f 21/31/1 22/32/1 23/33/1
f 23/34/1 24/35/1 21/36/1
f 25/37/1 26/38/1 27/39/1
f 27/40/1 28/41/1 25/42/1
f 29/43/1 30/44/1 31/45/1
f 31/46/1 32/47/1 29/48/1
f 33/49/1 34/50/1 35/51/1
f 35/52/1 36/53/1 33/54/1
f 32/55/1 37/56/1 38/57/1
f 38/58/1 39/59/1 32/60/1
f 40/61/1 41/62/1 42/63/1
f 42/64/1 43/65/1 40/66/1
f 44/67/1 42/68/1 45/69/1
f 45/70/1 46/71/1 44/72/1
f 47/73/1 48/74/1 49/75/1
f 49/76/1 50/77/1 47/78/1
f 51/79/1 52/80/1 53/81/1
f 53/82/1 54/83/1 51/84/1
f 55/85/1 56/86/1 57/87/1
f 57/88/1 58/89/1 55/90/1
f 59/91/1 60/92/1 61/93/1
f 61/94/1 62/95/1 59/96/1
f 63/97/1 64/98/1 65/99/1
f 65/100/1 66/101/1 63/102/1
f 67/103/1 68/104/1 69/105/1
f 69/106/1 70/107/1 67/108/1
f 72/109/2 71/110/2 73/111/2
f 74/112/2 73/113/2 71/114/2
f 76/115/2 75/116/2 77/117/2
f 78/118/2 77/119/2 75/120/2
f 80/121/2 79/122/2 81/123/2
f 82/124/2 81/125/2 79/126/2
f 84/127/2 83/128/2 85/129/2
f 86/130/2 85/131/2 83/132/2
f 85/133/2 87/134/2 88/135/2
f 89/136/2 88/137/2 87/138/2
f 91/139/2 90/140/2 92/141/2
f 93/142/2 92/143/2 90/144/2
f 95/145/2 94/146/2 96/147/2
f 97/148/2 96/149/2 94/150/2
f 98/151/2 97/152/2 99/153/2
f 100/154/2 99/155/2 97/156/2
f 102/157/2 101/158/2 103/159/2
f 104/160/2 103/161/2 101/162/2
f 106/163/2 105/164/2 107/165/2
f 108/166/2 107/167/2 105/168/2
f 110/169/2 109/170/2 111/171/2
f 112/172/2 111/173/2 109/174/2
f 114/175/2 113/176/2 115/177/2
f 116/178/2 115/179/2 113/180/2
f 118/181/2 117/182/2 119/183/2
f 120/184/2 119/185/2 117/186/2
f 122/187/2 121/188/2 123/189/2
f 124/190/2 123/191/2 121/192/2
f 126/193/2 125/194/2 127/195/2
f 128/196/2 127/197/2 125/198/2
f 130/199/2 129/200/2 131/201/2
f 132/202/2 131/203/2 129/204/2
f 134/205/2 133/206/2 135/207/2
f 136/208/2 135/209/2 133/210/2
f 138/211/2 137/212/2 139/213/2
f 140/214/2 139/215/2 137/216/2
f 26/38/3 25/37/3 11/15/3
f 12/17/3 11/16/3 25/42/3
f 48/74/3 47/73/3 126/217/3
f 125/218/3 126/219/3 47/78/3
f 56/86/3 55/85/3 138/220/3
f 137/221/3 138/222/3 55/90/3
f 135/223/3 136/224/3 130/225/3
f 129/226/3 130/227/3 136/228/3
f 77/229/3 78/230/3 19/27/3
f 20/29/3 19/28/3 78/231/3
f 41/62/3 40/61/3 49/75/3
f 50/77/3 49/76/3 40/66/3
f 10/14/3 9/13/3 114/232/3
f 113/233/3 114/234/3 9/18/3
f 131/235/3 132/236/3 141/237/3
f 94/238/3 141/239/3 132/240/3
f 141/241/3 95/242/3 80/243/3
f 79/244/3 80/245/3 95/246/3
f 127/247/3 128/248/3 57/87/3
f 58/89/3 57/88/3 128/249/3
f 43/250/3 44/251/3 140/252/3
f 142/253/3 140/254/3 44/255/3
f 139/256/3 142/257/3 69/105/3
f 70/107/3 69/106/3 142/258/3
f 81/259/3 82/260/3 106/261/3
f 105/262/3 106/263/3 82/264/3
f 6/8/3 5/7/3 35/51/3
f 36/53/3 35/52/3 5/12/3
f 92/265/3 93/266/3 110/267/3
f 109/268/3 110/269/3 93/270/3
f 2/2/3 1/1/3 31/45/3
f 37/271/3 31/46/3 1/6/3
f 22/32/3 21/31/3 45/69/3
f 46/71/3 45/70/3 21/36/3
f 99/272/3 100/273/3 23/33/3
f 24/35/3 23/34/3 100/274/3
f 117/182/4 118/181/4 88/135/4
f 88/137/4 89/136/4 117/186/4
f 75/116/4 76/115/4 18/275/4
f 18/276/4 17/277/4 75/120/4
f 66/278/4 65/279/4 68/280/4
f 68/281/4 67/282/4 66/283/4
f 133/206/4 134/205/4 60/284/4
f 60/285/4 143/286/4 133/210/4
f 121/188/4 122/187/4 52/287/4
f 52/288/4 51/289/4 121/192/4
f 143/290/4 59/291/4 87/292/4
f 87/293/4 86/294/4 143/295/4
f 16/296/4 15/297/4 144/298/4
f 144/299/4 38/300/4 16/301/4
f 39/302/4 144/303/4 64/304/4
f 64/305/4 63/306/4 39/307/4
f 62/308/4 61/309/4 123/189/4
f 123/191/4 124/190/4 62/310/4
f 54/311/4 53/312/4 119/183/4
f 119/185/4 120/184/4 54/313/4
f 101/158/4 102/157/4 115/177/4
f 115/179/4 116/178/4 101/162/4
f 28/314/4 27/315/4 103/159/4
f 103/161/4 104/160/4 28/316/4
f 8/317/4 7/318/4 14/319/4
f 14/320/4 13/321/4 8/322/4
f 4/323/4 3/324/4 34/325/4
f 34/326/4 33/327/4 4/328/4
f 90/140/4 91/139/4 107/165/4
f 107/167/4 108/166/4 90/144/4
f 83/128/4 84/127/4 73/111/4
f 73/113/4 74/112/4 83/132/4
f 71/110/4 72/109/4 30/329/4
f 30/330/4 29/331/4 71/114/4
f 96/332/4 98/151/4 111/171/4
f 111/173/4 112/172/4 96/333/4
f 86/334/5 83/335/5 74/336/5
f 74/337/5 145/338/5 86/339/5
f 136/340/5 133/341/5 145/342/5
f 145/343/5 77/344/5 136/345/5
f 132/346/5 129/347/5 19/348/5
f 19/349/5 146/350/5 132/351/5
f 100/352/5 94/353/5 146/354/5
f 146/355/5 24/356/5 100/357/5
f 145/342/5 71/358/5 29/359/5
f 29/360/5 39/361/5 145/362/5
f 21/31/5 146/363/5 44/72/5
f 44/67/5 46/71/5 21/36/5
f 76/364/5 145/365/5 63/366/5
f 63/367/5 66/368/5 76/369/5
f 146/354/5 18/370/5 67/371/5
f 67/372/5 70/373/5 146/355/5
f 78/230/5 75/374/5 17/30/5
f 17/25/5 20/29/5 78/231/5
f 59/291/6 62/375/6 121/376/6
f 124/377/6 121/378/6 62/379/6
f 51/380/6 54/381/6 147/382/6
f 120/383/6 147/384/6 54/385/6
f 147/386/6 117/387/6 87/292/6
f 89/388/6 87/293/6 117/389/6
f 95/145/6 90/390/6 79/391/6
f 148/392/6 79/393/6 90/394/6
f 82/395/6 148/396/6 105/397/6
f 108/398/6 105/399/6 148/400/6
f 93/401/6 96/149/6 109/402/6
f 112/403/6 109/404/6 96/147/6
f 25/405/6 28/406/6 12/407/6
f 149/408/6 12/409/6 28/410/6
f 9/411/6 149/412/6 150/413/6
f 104/414/6 150/415/6 149/416/6
f 150/417/6 101/418/6 113/419/6
f 116/420/6 113/421/6 101/422/6
f 1/423/6 4/424/6 37/425/6
f 33/426/6 37/427/6 4/428/6
f 5/429/6 8/430/6 151/431/6
f 13/432/6 151/433/6 8/434/6
f 151/435/6 16/436/6 36/437/6
f 38/438/6 36/439/6 16/440/6
f 40/441/6 43/442/6 50/443/6
f 152/444/6 50/445/6 43/446/6
f 47/447/6 152/448/6 125/449/6
f 128/450/6 125/451/6 152/452/6
f 55/453/6 58/454/6 137/455/6
f 140/456/6 137/457/6 58/458/6
f 134/205/6 135/209/6 60/284/6
f 130/199/6 60/285/6 135/207/6
f 122/187/6 123/191/6 52/287/6
f 53/312/6 52/288/6 123/189/6
f 61/309/6 131/203/6 119/183/6
f 153/459/6 119/185/6 131/201/6
f 118/181/6 153/460/6 154/461/6
f 80/121/6 154/462/6 153/463/6
f 84/127/6 88/137/6 2/464/6
f 10/14/6 2/465/6 88/135/6
f 154/466/6 26/467/6 10/468/6
f 11/469/6 10/470/6 26/471/6
f 27/315/6 81/125/6 103/159/6
f 106/163/6 103/161/6 81/123/6
f 91/139/6 92/143/6 107/165/6
f 110/169/6 107/167/6 92/141/6
f 7/318/6 10/470/6 14/319/6
f 114/175/6 14/320/6 10/468/6
f 102/157/6 111/173/6 115/177/6
f 22/32/6 115/179/6 111/171/6
f 98/151/6 99/155/6 22/472/6
f 23/473/6 22/474/6 99/153/6
f 72/109/6 73/113/6 30/329/6
f 31/475/6 30/330/6 73/111/6
f 3/324/6 6/476/6 34/325/6
f 35/477/6 34/326/6 6/478/6
f 155/479/6 22/474/6 41/480/6
f 45/481/6 41/482/6 22/472/6
f 15/297/6 155/483/6 156/484/6
f 49/485/6 156/486/6 155/487/6
f 126/193/6 127/197/6 56/488/6
f 57/489/6 56/490/6 127/195/6
f 156/491/6 48/492/6 64/304/6
f 138/211/6 64/305/6 48/493/6
f 65/279/6 139/215/6 68/280/6
f 69/494/6 68/281/6 139/213/6
