# Blender v2.78 (sub 0) OBJ File: ''
# www.blender.org
o mobile_balloon:pCylinder5.001
v -0.000002 -1.848537 -0.074943
v -0.075051 -1.848537 -0.000000
v -0.075051 1.848538 0.000000
v -0.000002 1.848538 -0.074943
v -0.000002 -1.848537 0.074943
v -0.000002 1.848538 0.074943
v 0.075055 -1.848537 -0.000000
v 0.075055 1.848538 0.000000
vt 0.8902 0.2961
vt 0.8876 0.2961
vt 0.8876 0.1779
vt 0.8902 0.1779
vt 0.8851 0.2961
vt 0.8851 0.1779
vt 0.8826 0.2961
vt 0.8826 0.1779
vt 0.8800 0.2961
vt 0.8800 0.1779
vn -0.7066 0.0000 -0.7076
vn -0.7066 -0.0000 0.7076
vn 0.7066 -0.0000 0.7076
vn 0.7066 0.0000 -0.7076
s 1
f 1/1/1 2/2/1 3/3/1 4/4/1
f 2/2/2 5/5/2 6/6/2 3/3/2
f 5/5/3 7/7/3 8/8/3 6/6/3
f 7/7/4 1/9/4 4/10/4 8/8/4
